<svg class="main-svg" xmlns="http://www.w3.org/2000/svg" xmlns:xlink="http://www.w3.org/1999/xlink" width="676.8000000000001pt" height="504pt" style="" viewBox="0 0 676.8000000000001 504"><rect x="0" y="0" width="676.8000000000001" height="504" style="fill: rgb(255, 255, 255); fill-opacity: 1;"/><defs id="defs-e743d2"><g class="clips"><clipPath id="clipe743d2xyplot" class="plotclip"><rect width="657" height="454"/></clipPath><clipPath class="axesclip" id="clipe743d2x"><rect x="10" y="0" width="657" height="504"/></clipPath><clipPath class="axesclip" id="clipe743d2y"><rect x="0" y="40" width="676.8000000000001" height="454"/></clipPath><clipPath class="axesclip" id="clipe743d2xy"><rect x="10" y="40" width="657" height="454"/></clipPath></g><g class="gradients"/><g class="patterns"/></defs><g class="bglayer"/><g class="layer-below"><g class="imagelayer"/><g class="shapelayer"/></g><g class="cartesianlayer"><g class="subplot xy"><g class="layer-subplot"><g class="shapelayer"><g class="shape-group" data-index="0" clip-path="url(#clipe743d2xy)"><path data-index="0" fill-rule="evenodd" d="M 280.8 71.78 L 396.2 71.78 C 400.62 71.78 404.2 68.2 404.2 63.78 L 404.2 59.35 C 404.2 54.93 400.62 51.35 396.2 51.35 L 280.8 51.35 C 276.38 51.35 272.8 54.93 272.8 59.35 L 272.8 63.78 C 272.8 68.2 276.38 71.78 280.8 71.78 Z" style="opacity: 1; stroke: rgb(51, 51, 51); stroke-opacity: 1; fill: rgb(0, 0, 0); fill-opacity: 0; stroke-width: 1px;"/></g><g class="shape-group" data-index="1" clip-path="url(#clipe743d2xy)"><path data-index="1" fill-rule="evenodd" d="M 221.67 130.8 L 455.33 130.8 C 459.75 130.8 463.33 127.22 463.33 122.8 L 463.33 102.47999999999999 C 463.33 98.06 459.75 94.47999999999999 455.33 94.47999999999999 L 221.67 94.47999999999999 C 217.25 94.47999999999999 213.67 98.06 213.67 102.47999999999999 L 213.67 122.8 C 213.67 127.22 217.25 130.8 221.67 130.8 Z" style="opacity: 1; stroke: rgb(51, 51, 51); stroke-opacity: 1; fill: rgb(0, 0, 0); fill-opacity: 0; stroke-width: 1px;"/></g><g class="shape-group" data-index="2" clip-path="url(#clipe743d2xy)"><path data-index="2" fill-rule="evenodd" d="M 241.38 189.82 L 435.62 189.82 C 440.04 189.82 443.62 186.24 443.62 181.82 L 443.62 163.76999999999998 C 443.62 159.35 440.04 155.76999999999998 435.62 155.76999999999998 L 241.38 155.76999999999998 C 236.96 155.76999999999998 233.38 159.35 233.38 163.76999999999998 L 233.38 181.82 C 233.38 186.24 236.96 189.82 241.38 189.82 Z" style="opacity: 1; stroke: rgb(51, 51, 51); stroke-opacity: 1; fill: rgb(0, 0, 0); fill-opacity: 0; stroke-width: 1px;"/></g><g class="shape-group" data-index="3" clip-path="url(#clipe743d2xy)"><path data-index="3" fill-rule="evenodd" d="M 57.42 303.32 L 277.94 303.32 C 282.36 303.32 285.94 299.74 285.94 295.32 L 285.94 261.38 C 285.94 256.96000000000004 282.36 253.38 277.94 253.38 L 57.42 253.38 C 53 253.38 49.42 256.96000000000004 49.42 261.38 L 49.42 295.32 C 49.42 299.74 53 303.32 57.42 303.32 Z" style="opacity: 1; stroke: rgb(51, 51, 51); stroke-opacity: 1; fill: rgb(0, 0, 0); fill-opacity: 0; stroke-width: 1px;"/></g><g class="shape-group" data-index="4" clip-path="url(#clipe743d2xy)"><path data-index="4" fill-rule="evenodd" d="M 399.06 253.38 L 619.58 253.38 C 624 253.38 627.58 249.8 627.58 245.38 L 627.58 220.52 C 627.58 216.1 624 212.52 619.58 212.52 L 399.06 212.52 C 394.64 212.52 391.06 216.1 391.06 220.52 L 391.06 245.38 C 391.06 249.8 394.64 253.38 399.06 253.38 Z" style="opacity: 1; stroke: rgb(51, 51, 51); stroke-opacity: 1; fill: rgb(0, 0, 0); fill-opacity: 0; stroke-width: 1px;"/></g><g class="shape-group" data-index="5" clip-path="url(#clipe743d2xy)"><path data-index="5" fill-rule="evenodd" d="M 399.06 321.48 L 619.58 321.48 C 624 321.48 627.58 317.9 627.58 313.48 L 627.58 288.62 C 627.58 284.2 624 280.62 619.58 280.62 L 399.06 280.62 C 394.64 280.62 391.06 284.2 391.06 288.62 L 391.06 313.48 C 391.06 317.9 394.64 321.48 399.06 321.48 Z" style="opacity: 1; stroke: rgb(51, 51, 51); stroke-opacity: 1; fill: rgb(0, 0, 0); fill-opacity: 0; stroke-width: 1px;"/></g><g class="shape-group" data-index="6" clip-path="url(#clipe743d2xy)"><path data-index="6" fill-rule="evenodd" d="M 399.06 389.58 L 619.58 389.58 C 624 389.58 627.58 386 627.58 381.58 L 627.58 356.72 C 627.58 352.3 624 348.72 619.58 348.72 L 399.06 348.72 C 394.64 348.72 391.06 352.3 391.06 356.72 L 391.06 381.58 C 391.06 386 394.64 389.58 399.06 389.58 Z" style="opacity: 1; stroke: rgb(51, 51, 51); stroke-opacity: 1; fill: rgb(0, 0, 0); fill-opacity: 0; stroke-width: 1px;"/></g><g class="shape-group" data-index="7" clip-path="url(#clipe743d2xy)"><path data-index="7" fill-rule="evenodd" d="M 221.67 466.76 L 455.33 466.76 C 459.75 466.76 463.33 463.18 463.33 458.76 L 463.33 438.44 C 463.33 434.02 459.75 430.44 455.33 430.44 L 221.67 430.44 C 217.25 430.44 213.67 434.02 213.67 438.44 L 213.67 458.76 C 213.67 463.18 217.25 466.76 221.67 466.76 Z" style="opacity: 1; stroke: rgb(51, 51, 51); stroke-opacity: 1; fill: rgb(0, 0, 0); fill-opacity: 0; stroke-width: 1px;"/></g></g><g class="imagelayer"/></g><g class="minor-gridlayer"><g class="x"/><g class="y"/></g><g class="gridlayer"><g class="x"/><g class="y"/></g><g class="zerolinelayer"/><g class="layer-between"><g class="shapelayer"/><g class="imagelayer"/></g><path class="xlines-below"/><path class="ylines-below"/><g class="overlines-below"/><g class="xaxislayer-below"/><g class="yaxislayer-below"/><g class="overaxes-below"/><g class="overplot"><g class="xy" transform="translate(10,40)" clip-path="url(#clipe743d2xyplot)"><g class="scatterlayer mlayer"><g class="trace scatter trace93b7fe" style="stroke-miterlimit: 2; opacity: 1;"><g class="fills"/><g class="errorbars"/><g class="lines"><path class="js-line" d="M203.67,408.6L26.28,408.6L26.28,72.64" style="vector-effect: none; fill: none; stroke: rgb(51, 51, 51); stroke-opacity: 1; stroke-width: 1.2px; opacity: 1;"/></g><g class="points"/><g class="text"/></g></g></g></g><g class="zerolinelayer-above"/><path class="xlines-above crisp" d="M0,0" style="fill: none;"/><path class="ylines-above crisp" d="M0,0" style="fill: none;"/><g class="overlines-above"/><g class="xaxislayer-above"/><g class="yaxislayer-above"/><g class="overaxes-above"/></g></g><g class="polarlayer"/><g class="smithlayer"/><g class="ternarylayer"/><g class="geolayer"/><g class="funnelarealayer"/><g class="pielayer"/><g class="iciclelayer"/><g class="treemaplayer"/><g class="sunburstlayer"/><g class="glimages"/><defs id="topdefs-e743d2"><g class="clips"/></defs><g class="layer-above"><g class="imagelayer"/><g class="shapelayer"/></g><g class="infolayer"><g class="g-gtitle"><text class="gtitle" x="338.40000000000003" y="20" text-anchor="middle" dy="0em" style="opacity: 1; font-family: Helvetica, Arial, 'Helvetica Neue', 'DejaVu Sans', 'PingFang SC', 'Songti SC', 'Hiragino Sans GB', 'Microsoft YaHei', sans-serif; font-size: 12px; fill: rgb(17, 17, 17); fill-opacity: 1; white-space: pre;">拥塞控制方法整体流程</text></g><g class="annotation" data-index="0" style="opacity: 1;"><g class="annotation-text-g" transform="rotate(0,338.5,61.57)"><g class="cursor-pointer" transform="translate(320,55)"><rect class="bg" x="0.5" y="0.5" width="37" height="13" style="stroke-width: 1px; stroke: rgb(0, 0, 0); stroke-opacity: 0; fill: rgb(0, 0, 0); fill-opacity: 0;"/><text class="annotation-text" text-anchor="middle" x="19" y="10" style="font-family: Helvetica, Arial, 'Helvetica Neue', 'DejaVu Sans', 'PingFang SC', 'Songti SC', 'Hiragino Sans GB', 'Microsoft YaHei', sans-serif; font-size: 8.5px; fill: rgb(17, 17, 17); fill-opacity: 1; white-space: pre;">连接建立</text></g></g></g><g class="annotation" data-index="1" style="opacity: 1;"><g class="annotation-text-g" transform="rotate(0,338.5,112.64)"><g class="cursor-pointer" transform="translate(293,100)"><rect class="bg" x="0.5" y="0.5" width="91" height="24" style="stroke-width: 1px; stroke: rgb(0, 0, 0); stroke-opacity: 0; fill: rgb(0, 0, 0); fill-opacity: 0;"/><text class="annotation-text" text-anchor="middle" x="46.2421875" y="10" style="font-family: Helvetica, Arial, 'Helvetica Neue', 'DejaVu Sans', 'PingFang SC', 'Songti SC', 'Hiragino Sans GB', 'Microsoft YaHei', sans-serif; font-size: 8.5px; fill: rgb(17, 17, 17); fill-opacity: 1; white-space: pre;"><tspan class="line" dy="0em" x="46.2421875" y="10">S1 状态采集</tspan><tspan class="line" dy="1.3em" x="46.2421875" y="10">窗口 · 传输 · RTT · 事件</tspan></text></g></g></g><g class="annotation" data-index="2" style="opacity: 1;"><g class="annotation-text-g" transform="rotate(0,338.5,172.8)"><g class="cursor-pointer" transform="translate(313,166)"><rect class="bg" x="0.5" y="0.5" width="50" height="13" style="stroke-width: 1px; stroke: rgb(0, 0, 0); stroke-opacity: 0; fill: rgb(0, 0, 0); fill-opacity: 0;"/><text class="annotation-text" text-anchor="middle" x="25.3828125" y="10" style="font-family: Helvetica, Arial, 'Helvetica Neue', 'DejaVu Sans', 'PingFang SC', 'Songti SC', 'Hiragino Sans GB', 'Microsoft YaHei', sans-serif; font-size: 8.5px; fill: rgb(17, 17, 17); fill-opacity: 1; white-space: pre;">S2 拥塞判定</text></g></g></g><g class="annotation" data-index="3" style="opacity: 1;"><g class="annotation-text-g" transform="rotate(0,167.68,278.35)"><g class="cursor-pointer" transform="translate(113,266)"><rect class="bg" x="0.5" y="0.5" width="108" height="24" style="stroke-width: 1px; stroke: rgb(0, 0, 0); stroke-opacity: 0; fill: rgb(0, 0, 0); fill-opacity: 0;"/><text class="annotation-text" text-anchor="middle" x="54.4453125" y="10" style="font-family: Helvetica, Arial, 'Helvetica Neue', 'DejaVu Sans', 'PingFang SC', 'Songti SC', 'Hiragino Sans GB', 'Microsoft YaHei', sans-serif; font-size: 8.5px; fill: rgb(17, 17, 17); fill-opacity: 1; white-space: pre;"><tspan class="line" dy="0em" x="54.4453125" y="10">S5b 差异化缩减</tspan><tspan class="line" dy="1.3em" x="54.4453125" y="10">0.50 / 0.75 / 0.70 · 安全保护</tspan></text></g></g></g><g class="annotation" data-index="4" style="opacity: 1;"><g class="annotation-text-g" transform="rotate(0,509.32,232.95)"><g class="cursor-pointer" transform="translate(465,220)"><rect class="bg" x="0.5" y="0.5" width="87" height="24" style="stroke-width: 1px; stroke: rgb(0, 0, 0); stroke-opacity: 0; fill: rgb(0, 0, 0); fill-opacity: 0;"/><text class="annotation-text" text-anchor="middle" x="43.796875" y="10" style="font-family: Helvetica, Arial, 'Helvetica Neue', 'DejaVu Sans', 'PingFang SC', 'Songti SC', 'Hiragino Sans GB', 'Microsoft YaHei', sans-serif; font-size: 8.5px; fill: rgb(17, 17, 17); fill-opacity: 1; white-space: pre;"><tspan class="line" dy="0em" x="43.796875" y="10">S3 两级 BDP 估计</tspan><tspan class="line" dy="1.3em" x="43.796875" y="10">交付速率 · 最大值滤波</tspan></text></g></g></g><g class="annotation" data-index="5" style="opacity: 1;"><g class="annotation-text-g" transform="rotate(0,509.32,301.05)"><g class="cursor-pointer" transform="translate(456,289)"><rect class="bg" x="0.5" y="0.5" width="105" height="24" style="stroke-width: 1px; stroke: rgb(0, 0, 0); stroke-opacity: 0; fill: rgb(0, 0, 0); fill-opacity: 0;"/><text class="annotation-text" text-anchor="middle" x="52.859375" y="10" style="font-family: Helvetica, Arial, 'Helvetica Neue', 'DejaVu Sans', 'PingFang SC', 'Songti SC', 'Hiragino Sans GB', 'Microsoft YaHei', sans-serif; font-size: 8.5px; fill: rgb(17, 17, 17); fill-opacity: 1; white-space: pre;"><tspan class="line" dy="0em" x="52.859375" y="10">S4 α 自适应</tspan><tspan class="line" dy="1.3em" x="52.859375" y="10">RTT · 快慢 EMA · 连续增长</tspan></text></g></g></g><g class="annotation" data-index="6" style="opacity: 1;"><g class="annotation-text-g" transform="rotate(0,509.32,369.15)"><g class="cursor-pointer" transform="translate(473,357)"><rect class="bg" x="0.5" y="0.5" width="72" height="24" style="stroke-width: 1px; stroke: rgb(0, 0, 0); stroke-opacity: 0; fill: rgb(0, 0, 0); fill-opacity: 0;"/><text class="annotation-text" text-anchor="middle" x="36.359375" y="10" style="font-family: Helvetica, Arial, 'Helvetica Neue', 'DejaVu Sans', 'PingFang SC', 'Songti SC', 'Hiragino Sans GB', 'Microsoft YaHei', sans-serif; font-size: 8.5px; fill: rgb(17, 17, 17); fill-opacity: 1; white-space: pre;"><tspan class="line" dy="0em" x="36.359375" y="10">S5a 目标窗口</tspan><tspan class="line" dy="1.3em" x="36.359375" y="10">有界跟踪 α × BDP</tspan></text></g></g></g><g class="annotation" data-index="7" style="opacity: 1;"><g class="annotation-text-g" transform="rotate(0,338.5,448.6)"><g class="cursor-pointer" transform="translate(307,436)"><rect class="bg" x="0.5" y="0.5" width="62" height="24" style="stroke-width: 1px; stroke: rgb(0, 0, 0); stroke-opacity: 0; fill: rgb(0, 0, 0); fill-opacity: 0;"/><text class="annotation-text" text-anchor="middle" x="31.53125" y="10" style="font-family: Helvetica, Arial, 'Helvetica Neue', 'DejaVu Sans', 'PingFang SC', 'Songti SC', 'Hiragino Sans GB', 'Microsoft YaHei', sans-serif; font-size: 8.5px; fill: rgb(17, 17, 17); fill-opacity: 1; white-space: pre;"><tspan class="line" dy="0em" x="31.53125" y="10">S6 原生写回</tspan><tspan class="line" dy="1.3em" x="31.53125" y="10">cwnd · ssthresh</tspan></text></g></g></g><g class="annotation" data-index="8" style="opacity: 1;"><g class="annotation-text-g" transform="rotate(0,338.5,71.78)"><g class="cursor-pointer" transform="translate(337,70)"><rect class="bg" x="0.5" y="0.5" width="3" height="3" style="stroke-width: 1px; stroke: rgb(0, 0, 0); stroke-opacity: 0; fill: rgb(0, 0, 0); fill-opacity: 0;"/><text class="annotation-text" text-anchor="middle" x="2" y="2" style="font-family: Helvetica, Arial, 'Helvetica Neue', 'DejaVu Sans', 'PingFang SC', 'Songti SC', 'Hiragino Sans GB', 'Microsoft YaHei', sans-serif; font-size: 8px; fill: rgb(17, 17, 17); fill-opacity: 1; white-space: pre;"></text></g></g><g class="annotation-arrow-g" style="opacity: 1;"><path d="M338.5,73.28L338.5,94.47999999999999" style="stroke-width: 1.1px; stroke: rgb(51, 51, 51); stroke-opacity: 1; stroke-dasharray: 0px, 0px, 19.77px, 21.2px;"/><path d="M-3.7,-2.5V2.5L1.3,0Z" transform="translate(338.5,93.05000305175781)rotate(90)scale(1.1)" style="fill: rgb(51, 51, 51); stroke-width: 0;"/></g></g><g class="annotation" data-index="9" style="opacity: 1;"><g class="annotation-text-g" transform="rotate(0,338.5,130.8)"><g class="cursor-pointer" transform="translate(337,129)"><rect class="bg" x="0.5" y="0.5" width="3" height="3" style="stroke-width: 1px; stroke: rgb(0, 0, 0); stroke-opacity: 0; fill: rgb(0, 0, 0); fill-opacity: 0;"/><text class="annotation-text" text-anchor="middle" x="2" y="2" style="font-family: Helvetica, Arial, 'Helvetica Neue', 'DejaVu Sans', 'PingFang SC', 'Songti SC', 'Hiragino Sans GB', 'Microsoft YaHei', sans-serif; font-size: 8px; fill: rgb(17, 17, 17); fill-opacity: 1; white-space: pre;"></text></g></g><g class="annotation-arrow-g" style="opacity: 1;"><path d="M338.5,132.3L338.5,155.76999999999998" style="stroke-width: 1.1px; stroke: rgb(51, 51, 51); stroke-opacity: 1; stroke-dasharray: 0px, 0px, 22.04px, 23.47px;"/><path d="M-3.7,-2.5V2.5L1.3,0Z" transform="translate(338.5,154.33999633789062)rotate(90)scale(1.1)" style="fill: rgb(51, 51, 51); stroke-width: 0;"/></g></g><g class="annotation" data-index="10" style="opacity: 1;"><g class="annotation-text-g" transform="rotate(0,272.8,189.82)"><g class="cursor-pointer" transform="translate(271,188)"><rect class="bg" x="0.5" y="0.5" width="3" height="3" style="stroke-width: 1px; stroke: rgb(0, 0, 0); stroke-opacity: 0; fill: rgb(0, 0, 0); fill-opacity: 0;"/><text class="annotation-text" text-anchor="middle" x="2" y="2" style="font-family: Helvetica, Arial, 'Helvetica Neue', 'DejaVu Sans', 'PingFang SC', 'Songti SC', 'Hiragino Sans GB', 'Microsoft YaHei', sans-serif; font-size: 8px; fill: rgb(17, 17, 17); fill-opacity: 1; white-space: pre;"></text></g></g><g class="annotation-arrow-g" style="opacity: 1;"><path d="M271.3,190.72696347031962L167.68,253.38" style="stroke-width: 1.1px; stroke: rgb(51, 51, 51); stroke-opacity: 1; stroke-dasharray: 0px, 0px, 119.659px, 121.089px;"/><path d="M-3.7,-2.5V2.5L1.3,0Z" transform="translate(168.90370178222656,252.64010620117188)rotate(148.83982555482547)scale(1.1)" style="fill: rgb(51, 51, 51); stroke-width: 0;"/></g></g><g class="annotation" data-index="11" style="opacity: 1;"><g class="annotation-text-g" transform="rotate(0,220.24,214.6)"><g class="cursor-pointer" transform="translate(211,209)"><rect class="bg" x="0.5" y="0.5" width="17" height="11" style="stroke-width: 1px; stroke: rgb(0, 0, 0); stroke-opacity: 0; fill: rgb(0, 0, 0); fill-opacity: 0;"/><text class="annotation-text" text-anchor="middle" x="9" y="8" style="font-family: Helvetica, Arial, 'Helvetica Neue', 'DejaVu Sans', 'PingFang SC', 'Songti SC', 'Hiragino Sans GB', 'Microsoft YaHei', sans-serif; font-size: 7px; fill: rgb(51, 51, 51); fill-opacity: 1; white-space: pre;">拥塞</text></g></g></g><g class="annotation" data-index="12" style="opacity: 1;"><g class="annotation-text-g" transform="rotate(0,404.2,189.82)"><g class="cursor-pointer" transform="translate(402,188)"><rect class="bg" x="0.5" y="0.5" width="3" height="3" style="stroke-width: 1px; stroke: rgb(0, 0, 0); stroke-opacity: 0; fill: rgb(0, 0, 0); fill-opacity: 0;"/><text class="annotation-text" text-anchor="middle" x="2" y="2" style="font-family: Helvetica, Arial, 'Helvetica Neue', 'DejaVu Sans', 'PingFang SC', 'Songti SC', 'Hiragino Sans GB', 'Microsoft YaHei', sans-serif; font-size: 8px; fill: rgb(17, 17, 17); fill-opacity: 1; white-space: pre;"></text></g></g><g class="annotation-arrow-g" style="opacity: 1;"><path d="M405.7,190.14391552511415L509.32,212.52" style="stroke-width: 1.1px; stroke: rgb(51, 51, 51); stroke-opacity: 1; stroke-dasharray: 0px, 0px, 104.578px, 106.008px;"/><path d="M-3.7,-2.5V2.5L1.3,0Z" transform="translate(507.9222412109375,212.21815490722656)rotate(12.182685479310196)scale(1.1)" style="fill: rgb(51, 51, 51); stroke-width: 0;"/></g></g><g class="annotation" data-index="13" style="opacity: 1;"><g class="annotation-text-g" transform="rotate(0,456.76,194.17)"><g class="cursor-pointer" transform="translate(444,188)"><rect class="bg" x="0.5" y="0.5" width="24" height="11" style="stroke-width: 1px; stroke: rgb(0, 0, 0); stroke-opacity: 0; fill: rgb(0, 0, 0); fill-opacity: 0;"/><text class="annotation-text" text-anchor="middle" x="12.5" y="8" style="font-family: Helvetica, Arial, 'Helvetica Neue', 'DejaVu Sans', 'PingFang SC', 'Songti SC', 'Hiragino Sans GB', 'Microsoft YaHei', sans-serif; font-size: 7px; fill: rgb(51, 51, 51); fill-opacity: 1; white-space: pre;">非拥塞</text></g></g></g><g class="annotation" data-index="14" style="opacity: 1;"><g class="annotation-text-g" transform="rotate(0,509.32,253.38)"><g class="cursor-pointer" transform="translate(507,251)"><rect class="bg" x="0.5" y="0.5" width="3" height="3" style="stroke-width: 1px; stroke: rgb(0, 0, 0); stroke-opacity: 0; fill: rgb(0, 0, 0); fill-opacity: 0;"/><text class="annotation-text" text-anchor="middle" x="2" y="2" style="font-family: Helvetica, Arial, 'Helvetica Neue', 'DejaVu Sans', 'PingFang SC', 'Songti SC', 'Hiragino Sans GB', 'Microsoft YaHei', sans-serif; font-size: 8px; fill: rgb(17, 17, 17); fill-opacity: 1; white-space: pre;"></text></g></g><g class="annotation-arrow-g" style="opacity: 1;"><path d="M509.32,254.88L509.32,280.62" style="stroke-width: 1.1px; stroke: rgb(51, 51, 51); stroke-opacity: 1; stroke-dasharray: 0px, 0px, 24.31px, 25.74px;"/><path d="M-3.7,-2.5V2.5L1.3,0Z" transform="translate(509.32000732421875,279.19000244140625)rotate(90)scale(1.1)" style="fill: rgb(51, 51, 51); stroke-width: 0;"/></g></g><g class="annotation" data-index="15" style="opacity: 1;"><g class="annotation-text-g" transform="rotate(0,509.32,321.48)"><g class="cursor-pointer" transform="translate(507,319)"><rect class="bg" x="0.5" y="0.5" width="3" height="3" style="stroke-width: 1px; stroke: rgb(0, 0, 0); stroke-opacity: 0; fill: rgb(0, 0, 0); fill-opacity: 0;"/><text class="annotation-text" text-anchor="middle" x="2" y="2" style="font-family: Helvetica, Arial, 'Helvetica Neue', 'DejaVu Sans', 'PingFang SC', 'Songti SC', 'Hiragino Sans GB', 'Microsoft YaHei', sans-serif; font-size: 8px; fill: rgb(17, 17, 17); fill-opacity: 1; white-space: pre;"></text></g></g><g class="annotation-arrow-g" style="opacity: 1;"><path d="M509.32,322.98L509.32,348.72" style="stroke-width: 1.1px; stroke: rgb(51, 51, 51); stroke-opacity: 1; stroke-dasharray: 0px, 0px, 24.31px, 25.74px;"/><path d="M-3.7,-2.5V2.5L1.3,0Z" transform="translate(509.32000732421875,347.2900085449219)rotate(90)scale(1.1)" style="fill: rgb(51, 51, 51); stroke-width: 0;"/></g></g><g class="annotation" data-index="16" style="opacity: 1;"><g class="annotation-text-g" transform="rotate(0,456.76,389.58)"><g class="cursor-pointer" transform="translate(455,388)"><rect class="bg" x="0.5" y="0.5" width="3" height="3" style="stroke-width: 1px; stroke: rgb(0, 0, 0); stroke-opacity: 0; fill: rgb(0, 0, 0); fill-opacity: 0;"/><text class="annotation-text" text-anchor="middle" x="2" y="2" style="font-family: Helvetica, Arial, 'Helvetica Neue', 'DejaVu Sans', 'PingFang SC', 'Songti SC', 'Hiragino Sans GB', 'Microsoft YaHei', sans-serif; font-size: 8px; fill: rgb(17, 17, 17); fill-opacity: 1; white-space: pre;"></text></g></g><g class="annotation-arrow-g" style="opacity: 1;"><path d="M455.26,390.74609589041097L404.2,430.44" style="stroke-width: 1.1px; stroke: rgb(51, 51, 51); stroke-opacity: 1; stroke-dasharray: 0px, 0px, 63.244px, 64.674px;"/><path d="M-3.7,-2.5V2.5L1.3,0Z" transform="translate(405.3289794921875,429.5623474121094)rotate(142.14035247795556)scale(1.1)" style="fill: rgb(51, 51, 51); stroke-width: 0;"/></g></g><g class="annotation" data-index="17" style="opacity: 1;"><g class="annotation-text-g" transform="rotate(0,167.68,303.32)"><g class="cursor-pointer" transform="translate(166,301)"><rect class="bg" x="0.5" y="0.5" width="3" height="3" style="stroke-width: 1px; stroke: rgb(0, 0, 0); stroke-opacity: 0; fill: rgb(0, 0, 0); fill-opacity: 0;"/><text class="annotation-text" text-anchor="middle" x="2" y="2" style="font-family: Helvetica, Arial, 'Helvetica Neue', 'DejaVu Sans', 'PingFang SC', 'Songti SC', 'Hiragino Sans GB', 'Microsoft YaHei', sans-serif; font-size: 8px; fill: rgb(17, 17, 17); fill-opacity: 1; white-space: pre;"></text></g></g><g class="annotation-arrow-g" style="opacity: 1;"><path d="M168.92040276903714,304.82L272.8,430.44" style="stroke-width: 1.1px; stroke: rgb(51, 51, 51); stroke-opacity: 1; stroke-dasharray: 0px, 0px, 161.577px, 163.007px;"/><path d="M-3.7,-2.5V2.5L1.3,0Z" transform="translate(271.8887023925781,429.3379821777344)rotate(50.41160999389981)scale(1.1)" style="fill: rgb(51, 51, 51); stroke-width: 0;"/></g></g><g class="annotation" data-index="18" style="opacity: 1;"><g class="annotation-text-g" transform="rotate(0,36.28,112.64)"><g class="cursor-pointer" transform="translate(34,111)"><rect class="bg" x="0.5" y="0.5" width="3" height="3" style="stroke-width: 1px; stroke: rgb(0, 0, 0); stroke-opacity: 0; fill: rgb(0, 0, 0); fill-opacity: 0;"/><text class="annotation-text" text-anchor="middle" x="2" y="2" style="font-family: Helvetica, Arial, 'Helvetica Neue', 'DejaVu Sans', 'PingFang SC', 'Songti SC', 'Hiragino Sans GB', 'Microsoft YaHei', sans-serif; font-size: 8px; fill: rgb(17, 17, 17); fill-opacity: 1; white-space: pre;"></text></g></g><g class="annotation-arrow-g" style="opacity: 1;"><path d="M37.78,112.64L213.67,112.64" style="stroke-width: 1.1px; stroke: rgb(51, 51, 51); stroke-opacity: 1; stroke-dasharray: 0px, 0px, 174.46px, 175.89px;"/><path d="M-3.7,-2.5V2.5L1.3,0Z" transform="translate(212.24000549316406,112.63999938964844)scale(1.1)" style="fill: rgb(51, 51, 51); stroke-width: 0;"/></g></g><g class="annotation" data-index="19" style="opacity: 1;"><g class="annotation-text-g" transform="rotate(-90,28.4,276.08000000000004)"><g class="cursor-pointer" transform="translate(-1,270)"><rect class="bg" x="0.5" y="0.5" width="57" height="12" style="stroke-width: 1px; stroke: rgb(0, 0, 0); stroke-opacity: 0; fill: rgb(0, 0, 0); fill-opacity: 0;"/><text class="annotation-text" text-anchor="middle" x="29.09375" y="9" style="font-family: Helvetica, Arial, 'Helvetica Neue', 'DejaVu Sans', 'PingFang SC', 'Songti SC', 'Hiragino Sans GB', 'Microsoft YaHei', sans-serif; font-size: 7.5px; fill: rgb(51, 51, 51); fill-opacity: 1; white-space: pre;">反馈 · EMA 更新</text></g></g></g></g></svg>