<svg class="main-svg" xmlns="http://www.w3.org/2000/svg" xmlns:xlink="http://www.w3.org/1999/xlink" width="662.4pt" height="331.2pt" style="" viewBox="0 0 662.4 331.2"><rect x="0" y="0" width="662.4" height="331.2" style="fill: rgb(255, 255, 255); fill-opacity: 1;"/><defs id="defs-b19bee"><g class="clips"><clipPath id="clipb19beexyplot" class="plotclip"><rect width="642" height="281"/></clipPath><clipPath class="axesclip" id="clipb19beex"><rect x="10" y="0" width="642" height="331.2"/></clipPath><clipPath class="axesclip" id="clipb19beey"><rect x="0" y="40" width="662.4" height="281"/></clipPath><clipPath class="axesclip" id="clipb19beexy"><rect x="10" y="40" width="642" height="281"/></clipPath></g><g class="gradients"/><g class="patterns"/></defs><g class="bglayer"/><g class="layer-below"><g class="imagelayer"/><g class="shapelayer"/></g><g class="cartesianlayer"><g class="subplot xy"><g class="layer-subplot"><g class="shapelayer"><g class="shape-group" data-index="0" clip-path="url(#clipb19beexy)"><path data-index="0" fill-rule="evenodd" d="M 37.260000000000005 146.78 L 149.66 146.78 C 154.08 146.78 157.66 143.2 157.66 138.79000000000002 L 157.66 104.19 C 157.66 99.78 154.08 96.2 149.66 96.2 L 37.260000000000005 96.2 C 32.84 96.2 29.26 99.78 29.26 104.19 L 29.26 138.79000000000002 C 29.26 143.2 32.84 146.78 37.260000000000005 146.78 Z" style="opacity: 1; stroke: rgb(51, 51, 51); stroke-opacity: 1; fill: rgb(0, 0, 0); fill-opacity: 0; stroke-width: 1px;"/></g><g class="shape-group" data-index="1" clip-path="url(#clipb19beexy)"><path data-index="1" fill-rule="evenodd" d="M 204.18 146.78 L 316.58 146.78 C 321 146.78 324.58 143.2 324.58 138.79000000000002 L 324.58 104.19 C 324.58 99.78 321 96.2 316.58 96.2 L 204.18 96.2 C 199.76 96.2 196.18 99.78 196.18 104.19 L 196.18 138.79000000000002 C 196.18 143.2 199.76 146.78 204.18 146.78 Z" style="opacity: 1; stroke: rgb(51, 51, 51); stroke-opacity: 1; fill: rgb(0, 0, 0); fill-opacity: 0; stroke-width: 1px;"/></g><g class="shape-group" data-index="2" clip-path="url(#clipb19beexy)"><path data-index="2" fill-rule="evenodd" d="M 377.52 146.78 L 477.08 146.78 C 481.5 146.78 485.08 143.2 485.08 138.79000000000002 L 485.08 104.19 C 485.08 99.78 481.5 96.2 477.08 96.2 L 377.52 96.2 C 373.1 96.2 369.52 99.78 369.52 104.19 L 369.52 138.79000000000002 C 369.52 143.2 373.1 146.78 377.52 146.78 Z" style="opacity: 1; stroke: rgb(51, 51, 51); stroke-opacity: 1; fill: rgb(0, 0, 0); fill-opacity: 0; stroke-width: 1px;"/></g><g class="shape-group" data-index="3" clip-path="url(#clipb19beexy)"><path data-index="3" fill-rule="evenodd" d="M 538.02 146.78 L 624.74 146.78 C 629.16 146.78 632.74 143.2 632.74 138.79000000000002 L 632.74 104.19 C 632.74 99.78 629.16 96.2 624.74 96.2 L 538.02 96.2 C 533.6 96.2 530.02 99.78 530.02 104.19 L 530.02 138.79000000000002 C 530.02 143.2 533.6 146.78 538.02 146.78 Z" style="opacity: 1; stroke: rgb(51, 51, 51); stroke-opacity: 1; fill: rgb(0, 0, 0); fill-opacity: 0; stroke-width: 1px;"/></g><g class="shape-group" data-index="4" clip-path="url(#clipb19beexy)"><path data-index="4" fill-rule="evenodd" d="M 69.36 270.41999999999996 L 220.28 270.41999999999996 C 224.7 270.41999999999996 228.28 266.84000000000003 228.28 262.43 L 228.28 233.45 C 228.28 229.04 224.7 225.46 220.28 225.46 L 69.36 225.46 C 64.94 225.46 61.36 229.04 61.36 233.45 L 61.36 262.43 C 61.36 266.84000000000003 64.94 270.41999999999996 69.36 270.41999999999996 Z" style="opacity: 1; stroke: rgb(51, 51, 51); stroke-opacity: 1; fill: rgb(0, 0, 0); fill-opacity: 0; stroke-width: 1px;"/></g><g class="shape-group" data-index="5" clip-path="url(#clipb19beexy)"><path data-index="5" fill-rule="evenodd" d="M 274.8 270.41999999999996 L 400.04 270.41999999999996 C 404.46 270.41999999999996 408.04 266.84000000000003 408.04 262.43 L 408.04 233.45 C 408.04 229.04 404.46 225.46 400.04 225.46 L 274.8 225.46 C 270.38 225.46 266.8 229.04 266.8 233.45 L 266.8 262.43 C 266.8 266.84000000000003 270.38 270.41999999999996 274.8 270.41999999999996 Z" style="opacity: 1; stroke: rgb(51, 51, 51); stroke-opacity: 1; fill: rgb(0, 0, 0); fill-opacity: 0; stroke-width: 1px;"/></g><g class="shape-group" data-index="6" clip-path="url(#clipb19beexy)"><path data-index="6" fill-rule="evenodd" d="M 467.4 270.41999999999996 L 618.32 270.41999999999996 C 622.74 270.41999999999996 626.32 266.84000000000003 626.32 262.43 L 626.32 233.45 C 626.32 229.04 622.74 225.46 618.32 225.46 L 467.4 225.46 C 462.98 225.46 459.4 229.04 459.4 233.45 L 459.4 262.43 C 459.4 266.84000000000003 462.98 270.41999999999996 467.4 270.41999999999996 Z" style="opacity: 1; stroke: rgb(51, 51, 51); stroke-opacity: 1; fill: rgb(0, 0, 0); fill-opacity: 0; stroke-width: 1px;"/></g></g><g class="imagelayer"/></g><g class="minor-gridlayer"><g class="x"/><g class="y"/></g><g class="gridlayer"><g class="x"/><g class="y"/></g><g class="zerolinelayer"/><g class="layer-between"><g class="shapelayer"/><g class="imagelayer"/></g><path class="xlines-below"/><path class="ylines-below"/><g class="overlines-below"/><g class="xaxislayer-below"/><g class="yaxislayer-below"/><g class="overaxes-below"/><g class="overplot"><g class="xy" transform="translate(10,40)" clip-path="url(#clipb19beexyplot)"/></g><g class="zerolinelayer-above"/><path class="xlines-above crisp" d="M0,0" style="fill: none;"/><path class="ylines-above crisp" d="M0,0" style="fill: none;"/><g class="overlines-above"/><g class="xaxislayer-above"/><g class="yaxislayer-above"/><g class="overaxes-above"/></g></g><g class="polarlayer"/><g class="smithlayer"/><g class="ternarylayer"/><g class="geolayer"/><g class="funnelarealayer"/><g class="pielayer"/><g class="iciclelayer"/><g class="treemaplayer"/><g class="sunburstlayer"/><g class="glimages"/><defs id="topdefs-b19bee"><g class="clips"/></defs><g class="layer-above"><g class="imagelayer"/><g class="shapelayer"><g class="shape-group" data-index="7" clip-path="url(#clipb19beexy)"><path data-index="7" fill-rule="evenodd" d="M 581.38 96.2 Q 331 59.67 93.46 96.2" style="opacity: 1; stroke: rgb(51, 51, 51); stroke-opacity: 1; fill: rgb(0, 0, 0); fill-opacity: 0; stroke-dasharray: 3px, 3px; stroke-width: 1.2px;"/></g></g></g><g class="infolayer"><g class="g-gtitle"><text class="gtitle" x="331.2" y="20" text-anchor="middle" dy="0em" style="opacity: 1; font-family: Helvetica, Arial, 'Helvetica Neue', 'DejaVu Sans', 'PingFang SC', 'Songti SC', 'Hiragino Sans GB', 'Microsoft YaHei', sans-serif; font-size: 12px; fill: rgb(17, 17, 17); fill-opacity: 1; white-space: pre;">原生 C++ 拥塞控制回路</text></g><g class="annotation" data-index="0" style="opacity: 1;"><g class="annotation-text-g" transform="rotate(0,93.46,121.49)"><g class="cursor-pointer" transform="translate(46,109)"><rect class="bg" x="0.5" y="0.5" width="93" height="24" style="stroke-width: 1px; stroke: rgb(0, 0, 0); stroke-opacity: 0; fill: rgb(0, 0, 0); fill-opacity: 0;"/><text class="annotation-text" text-anchor="middle" x="46.953125" y="10" style="font-family: Helvetica, Arial, 'Helvetica Neue', 'DejaVu Sans', 'PingFang SC', 'Songti SC', 'Hiragino Sans GB', 'Microsoft YaHei', sans-serif; font-size: 8.5px; fill: rgb(17, 17, 17); fill-opacity: 1; white-space: pre;"><tspan class="line" dy="0em" x="46.953125" y="10">ns-3 原生回调</tspan><tspan class="line" dy="1.3em" x="46.953125" y="10">ACK · 丢包 · RTT · ECN</tspan></text></g></g></g><g class="annotation" data-index="1" style="opacity: 1;"><g class="annotation-text-g" transform="rotate(0,260.38,121.49)"><g class="cursor-pointer" transform="translate(211,109)"><rect class="bg" x="0.5" y="0.5" width="97" height="24" style="stroke-width: 1px; stroke: rgb(0, 0, 0); stroke-opacity: 0; fill: rgb(0, 0, 0); fill-opacity: 0;"/><text class="annotation-text" text-anchor="middle" x="48.7734375" y="10" style="font-family: Helvetica, Arial, 'Helvetica Neue', 'DejaVu Sans', 'PingFang SC', 'Songti SC', 'Hiragino Sans GB', 'Microsoft YaHei', sans-serif; font-size: 8.5px; fill: rgb(17, 17, 17); fill-opacity: 1; white-space: pre;"><tspan class="line" dy="0em" x="48.7734375" y="10">连接状态</tspan><tspan class="line" dy="1.3em" x="48.7734375" y="10">cwnd · minRTT · BDP · α</tspan></text></g></g></g><g class="annotation" data-index="2" style="opacity: 1;"><g class="annotation-text-g" transform="rotate(0,427.3,121.49)"><g class="cursor-pointer" transform="translate(400,109)"><rect class="bg" x="0.5" y="0.5" width="54" height="24" style="stroke-width: 1px; stroke: rgb(0, 0, 0); stroke-opacity: 0; fill: rgb(0, 0, 0); fill-opacity: 0;"/><text class="annotation-text" text-anchor="middle" x="27.5" y="10" style="font-family: Helvetica, Arial, 'Helvetica Neue', 'DejaVu Sans', 'PingFang SC', 'Songti SC', 'Hiragino Sans GB', 'Microsoft YaHei', sans-serif; font-size: 8.5px; fill: rgb(17, 17, 17); fill-opacity: 1; white-space: pre;"><tspan class="line" dy="0em" x="27.5" y="10">C++ 决策</tspan><tspan class="line" dy="1.3em" x="27.5" y="10">同一事件进程</tspan></text></g></g></g><g class="annotation" data-index="3" style="opacity: 1;"><g class="annotation-text-g" transform="rotate(0,581.38,121.49)"><g class="cursor-pointer" transform="translate(550,109)"><rect class="bg" x="0.5" y="0.5" width="62" height="24" style="stroke-width: 1px; stroke: rgb(0, 0, 0); stroke-opacity: 0; fill: rgb(0, 0, 0); fill-opacity: 0;"/><text class="annotation-text" text-anchor="middle" x="31.53125" y="10" style="font-family: Helvetica, Arial, 'Helvetica Neue', 'DejaVu Sans', 'PingFang SC', 'Songti SC', 'Hiragino Sans GB', 'Microsoft YaHei', sans-serif; font-size: 8.5px; fill: rgb(17, 17, 17); fill-opacity: 1; white-space: pre;"><tspan class="line" dy="0em" x="31.53125" y="10">协议栈写回</tspan><tspan class="line" dy="1.3em" x="31.53125" y="10">cwnd · ssthresh</tspan></text></g></g></g><g class="annotation" data-index="4" style="opacity: 1;"><g class="annotation-text-g" transform="rotate(0,144.82,247.94)"><g class="cursor-pointer" transform="translate(110,235)"><rect class="bg" x="0.5" y="0.5" width="69" height="24" style="stroke-width: 1px; stroke: rgb(0, 0, 0); stroke-opacity: 0; fill: rgb(0, 0, 0); fill-opacity: 0;"/><text class="annotation-text" text-anchor="middle" x="35.0625" y="10" style="font-family: Helvetica, Arial, 'Helvetica Neue', 'DejaVu Sans', 'PingFang SC', 'Songti SC', 'Hiragino Sans GB', 'Microsoft YaHei', sans-serif; font-size: 8.5px; fill: rgb(17, 17, 17); fill-opacity: 1; white-space: pre;"><tspan class="line" dy="0em" x="35.0625" y="10">拥塞分类</tspan><tspan class="line" dy="1.3em" x="35.0625" y="10">超时 · ECN · 丢包</tspan></text></g></g></g><g class="annotation" data-index="5" style="opacity: 1;"><g class="annotation-text-g" transform="rotate(0,337.42,247.94)"><g class="cursor-pointer" transform="translate(302,235)"><rect class="bg" x="0.5" y="0.5" width="70" height="24" style="stroke-width: 1px; stroke: rgb(0, 0, 0); stroke-opacity: 0; fill: rgb(0, 0, 0); fill-opacity: 0;"/><text class="annotation-text" text-anchor="middle" x="35.296875" y="10" style="font-family: Helvetica, Arial, 'Helvetica Neue', 'DejaVu Sans', 'PingFang SC', 'Songti SC', 'Hiragino Sans GB', 'Microsoft YaHei', sans-serif; font-size: 8.5px; fill: rgb(17, 17, 17); fill-opacity: 1; white-space: pre;"><tspan class="line" dy="0em" x="35.296875" y="10">两级 BDP 估计</tspan><tspan class="line" dy="1.3em" x="35.296875" y="10">交付速率 · 最大值</tspan></text></g></g></g><g class="annotation" data-index="6" style="opacity: 1;"><g class="annotation-text-g" transform="rotate(0,542.86,247.94)"><g class="cursor-pointer" transform="translate(502,235)"><rect class="bg" x="0.5" y="0.5" width="80" height="24" style="stroke-width: 1px; stroke: rgb(0, 0, 0); stroke-opacity: 0; fill: rgb(0, 0, 0); fill-opacity: 0;"/><text class="annotation-text" text-anchor="middle" x="40.3359375" y="10" style="font-family: Helvetica, Arial, 'Helvetica Neue', 'DejaVu Sans', 'PingFang SC', 'Songti SC', 'Hiragino Sans GB', 'Microsoft YaHei', sans-serif; font-size: 8.5px; fill: rgb(17, 17, 17); fill-opacity: 1; white-space: pre;"><tspan class="line" dy="0em" x="40.3359375" y="10">α 自适应</tspan><tspan class="line" dy="1.3em" x="40.3359375" y="10">RTT 反馈 · 目标窗口</tspan></text></g></g></g><g class="annotation" data-index="7" style="opacity: 1;"><g class="annotation-text-g" transform="rotate(0,157.66,121.49)"><g class="cursor-pointer" transform="translate(156,119)"><rect class="bg" x="0.5" y="0.5" width="3" height="3" style="stroke-width: 1px; stroke: rgb(0, 0, 0); stroke-opacity: 0; fill: rgb(0, 0, 0); fill-opacity: 0;"/><text class="annotation-text" text-anchor="middle" x="2" y="2" style="font-family: Helvetica, Arial, 'Helvetica Neue', 'DejaVu Sans', 'PingFang SC', 'Songti SC', 'Hiragino Sans GB', 'Microsoft YaHei', sans-serif; font-size: 8px; fill: rgb(17, 17, 17); fill-opacity: 1; white-space: pre;"></text></g></g><g class="annotation-arrow-g" style="opacity: 1;"><path d="M159.16,121.49L196.18,121.49" style="stroke-width: 1.1px; stroke: rgb(51, 51, 51); stroke-opacity: 1; stroke-dasharray: 0px, 0px, 35.59px, 37.02px;"/><path d="M-3.7,-2.5V2.5L1.3,0Z" transform="translate(194.75,121.48999786376953)scale(1.1)" style="fill: rgb(51, 51, 51); stroke-width: 0;"/></g></g><g class="annotation" data-index="8" style="opacity: 1;"><g class="annotation-text-g" transform="rotate(0,176.92,114.49)"><g class="cursor-pointer" transform="translate(168,108)"><rect class="bg" x="0.5" y="0.5" width="17" height="11" style="stroke-width: 1px; stroke: rgb(0, 0, 0); stroke-opacity: 0; fill: rgb(0, 0, 0); fill-opacity: 0;"/><text class="annotation-text" text-anchor="middle" x="9" y="8" style="font-family: Helvetica, Arial, 'Helvetica Neue', 'DejaVu Sans', 'PingFang SC', 'Songti SC', 'Hiragino Sans GB', 'Microsoft YaHei', sans-serif; font-size: 7px; fill: rgb(51, 51, 51); fill-opacity: 1; white-space: pre;">读取</text></g></g></g><g class="annotation" data-index="9" style="opacity: 1;"><g class="annotation-text-g" transform="rotate(0,324.58,121.49)"><g class="cursor-pointer" transform="translate(323,119)"><rect class="bg" x="0.5" y="0.5" width="3" height="3" style="stroke-width: 1px; stroke: rgb(0, 0, 0); stroke-opacity: 0; fill: rgb(0, 0, 0); fill-opacity: 0;"/><text class="annotation-text" text-anchor="middle" x="2" y="2" style="font-family: Helvetica, Arial, 'Helvetica Neue', 'DejaVu Sans', 'PingFang SC', 'Songti SC', 'Hiragino Sans GB', 'Microsoft YaHei', sans-serif; font-size: 8px; fill: rgb(17, 17, 17); fill-opacity: 1; white-space: pre;"></text></g></g><g class="annotation-arrow-g" style="opacity: 1;"><path d="M326.08,121.49L369.52,121.49" style="stroke-width: 1.1px; stroke: rgb(51, 51, 51); stroke-opacity: 1; stroke-dasharray: 0px, 0px, 42.01px, 43.44px;"/><path d="M-3.7,-2.5V2.5L1.3,0Z" transform="translate(368.0899963378906,121.48999786376953)scale(1.1)" style="fill: rgb(51, 51, 51); stroke-width: 0;"/></g></g><g class="annotation" data-index="10" style="opacity: 1;"><g class="annotation-text-g" transform="rotate(0,347.05,114.49)"><g class="cursor-pointer" transform="translate(338,108)"><rect class="bg" x="0.5" y="0.5" width="17" height="11" style="stroke-width: 1px; stroke: rgb(0, 0, 0); stroke-opacity: 0; fill: rgb(0, 0, 0); fill-opacity: 0;"/><text class="annotation-text" text-anchor="middle" x="9" y="8" style="font-family: Helvetica, Arial, 'Helvetica Neue', 'DejaVu Sans', 'PingFang SC', 'Songti SC', 'Hiragino Sans GB', 'Microsoft YaHei', sans-serif; font-size: 7px; fill: rgb(51, 51, 51); fill-opacity: 1; white-space: pre;">决策</text></g></g></g><g class="annotation" data-index="11" style="opacity: 1;"><g class="annotation-text-g" transform="rotate(0,485.08,121.49)"><g class="cursor-pointer" transform="translate(483,119)"><rect class="bg" x="0.5" y="0.5" width="3" height="3" style="stroke-width: 1px; stroke: rgb(0, 0, 0); stroke-opacity: 0; fill: rgb(0, 0, 0); fill-opacity: 0;"/><text class="annotation-text" text-anchor="middle" x="2" y="2" style="font-family: Helvetica, Arial, 'Helvetica Neue', 'DejaVu Sans', 'PingFang SC', 'Songti SC', 'Hiragino Sans GB', 'Microsoft YaHei', sans-serif; font-size: 8px; fill: rgb(17, 17, 17); fill-opacity: 1; white-space: pre;"></text></g></g><g class="annotation-arrow-g" style="opacity: 1;"><path d="M486.58,121.49L530.02,121.49" style="stroke-width: 1.1px; stroke: rgb(51, 51, 51); stroke-opacity: 1; stroke-dasharray: 0px, 0px, 42.01px, 43.44px;"/><path d="M-3.7,-2.5V2.5L1.3,0Z" transform="translate(528.5900268554688,121.48999786376953)scale(1.1)" style="fill: rgb(51, 51, 51); stroke-width: 0;"/></g></g><g class="annotation" data-index="12" style="opacity: 1;"><g class="annotation-text-g" transform="rotate(0,507.55,114.49)"><g class="cursor-pointer" transform="translate(499,108)"><rect class="bg" x="0.5" y="0.5" width="17" height="11" style="stroke-width: 1px; stroke: rgb(0, 0, 0); stroke-opacity: 0; fill: rgb(0, 0, 0); fill-opacity: 0;"/><text class="annotation-text" text-anchor="middle" x="9" y="8" style="font-family: Helvetica, Arial, 'Helvetica Neue', 'DejaVu Sans', 'PingFang SC', 'Songti SC', 'Hiragino Sans GB', 'Microsoft YaHei', sans-serif; font-size: 7px; fill: rgb(51, 51, 51); fill-opacity: 1; white-space: pre;">更新</text></g></g></g><g class="annotation" data-index="13" style="opacity: 1;"><g class="annotation-text-g" transform="rotate(0,93.46,146.78)"><g class="cursor-pointer" transform="translate(91,145)"><rect class="bg" x="0.5" y="0.5" width="3" height="3" style="stroke-width: 1px; stroke: rgb(0, 0, 0); stroke-opacity: 0; fill: rgb(0, 0, 0); fill-opacity: 0;"/><text class="annotation-text" text-anchor="middle" x="2" y="2" style="font-family: Helvetica, Arial, 'Helvetica Neue', 'DejaVu Sans', 'PingFang SC', 'Songti SC', 'Hiragino Sans GB', 'Microsoft YaHei', sans-serif; font-size: 8px; fill: rgb(17, 17, 17); fill-opacity: 1; white-space: pre;"></text></g></g><g class="annotation-arrow-g" style="opacity: 1;"><path d="M94.07197254702592,148.28L125.56,225.46" style="stroke-width: 1.1px; stroke: rgb(51, 51, 51); stroke-opacity: 1; stroke-dasharray: 0px, 0px, 81.9262px, 83.3562px;"/><path d="M-3.7,-2.5V2.5L1.3,0Z" transform="translate(125.01981353759766,224.13595581054688)rotate(67.80651562846926)scale(1.1)" style="fill: rgb(51, 51, 51); stroke-width: 0;"/></g></g><g class="annotation" data-index="14" style="opacity: 1;"><g class="annotation-text-g" transform="rotate(0,109.51,179.12)"><g class="cursor-pointer" transform="translate(94,173)"><rect class="bg" x="0.5" y="0.5" width="31" height="11" style="stroke-width: 1px; stroke: rgb(0, 0, 0); stroke-opacity: 0; fill: rgb(0, 0, 0); fill-opacity: 0;"/><text class="annotation-text" text-anchor="middle" x="16" y="8" style="font-family: Helvetica, Arial, 'Helvetica Neue', 'DejaVu Sans', 'PingFang SC', 'Songti SC', 'Hiragino Sans GB', 'Microsoft YaHei', sans-serif; font-size: 7px; fill: rgb(51, 51, 51); fill-opacity: 1; white-space: pre;">拥塞信号</text></g></g></g><g class="annotation" data-index="15" style="opacity: 1;"><g class="annotation-text-g" transform="rotate(0,228.28,233.89)"><g class="cursor-pointer" transform="translate(226,232)"><rect class="bg" x="0.5" y="0.5" width="3" height="3" style="stroke-width: 1px; stroke: rgb(0, 0, 0); stroke-opacity: 0; fill: rgb(0, 0, 0); fill-opacity: 0;"/><text class="annotation-text" text-anchor="middle" x="2" y="2" style="font-family: Helvetica, Arial, 'Helvetica Neue', 'DejaVu Sans', 'PingFang SC', 'Songti SC', 'Hiragino Sans GB', 'Microsoft YaHei', sans-serif; font-size: 8px; fill: rgb(17, 17, 17); fill-opacity: 1; white-space: pre;"></text></g></g><g class="annotation-arrow-g" style="opacity: 1;"><path d="M229.78,232.87534409515717L369.52,138.35" style="stroke-width: 1.1px; stroke: rgb(51, 51, 51); stroke-opacity: 1; stroke-dasharray: 0px, 0px, 167.278px, 168.708px;"/><path d="M-3.7,-2.5V2.5L1.3,0Z" transform="translate(368.3355407714844,139.15121459960938)rotate(-34.078047236645176)scale(1.1)" style="fill: rgb(51, 51, 51); stroke-width: 0;"/></g></g><g class="annotation" data-index="16" style="opacity: 1;"><g class="annotation-text-g" transform="rotate(0,298.9,179.12)"><g class="cursor-pointer" transform="translate(283,173)"><rect class="bg" x="0.5" y="0.5" width="31" height="11" style="stroke-width: 1px; stroke: rgb(0, 0, 0); stroke-opacity: 0; fill: rgb(0, 0, 0); fill-opacity: 0;"/><text class="annotation-text" text-anchor="middle" x="16" y="8" style="font-family: Helvetica, Arial, 'Helvetica Neue', 'DejaVu Sans', 'PingFang SC', 'Songti SC', 'Hiragino Sans GB', 'Microsoft YaHei', sans-serif; font-size: 7px; fill: rgb(51, 51, 51); fill-opacity: 1; white-space: pre;">拥塞类型</text></g></g></g><g class="annotation" data-index="17" style="opacity: 1;"><g class="annotation-text-g" transform="rotate(0,408.04,247.94)"><g class="cursor-pointer" transform="translate(406,246)"><rect class="bg" x="0.5" y="0.5" width="3" height="3" style="stroke-width: 1px; stroke: rgb(0, 0, 0); stroke-opacity: 0; fill: rgb(0, 0, 0); fill-opacity: 0;"/><text class="annotation-text" text-anchor="middle" x="2" y="2" style="font-family: Helvetica, Arial, 'Helvetica Neue', 'DejaVu Sans', 'PingFang SC', 'Songti SC', 'Hiragino Sans GB', 'Microsoft YaHei', sans-serif; font-size: 8px; fill: rgb(17, 17, 17); fill-opacity: 1; white-space: pre;"></text></g></g><g class="annotation-arrow-g" style="opacity: 1;"><path d="M409.54,247.94L459.4,247.94" style="stroke-width: 1.1px; stroke: rgb(51, 51, 51); stroke-opacity: 1; stroke-dasharray: 0px, 0px, 48.43px, 49.86px;"/><path d="M-3.7,-2.5V2.5L1.3,0Z" transform="translate(457.9700012207031,247.94000244140625)scale(1.1)" style="fill: rgb(51, 51, 51); stroke-width: 0;"/></g></g><g class="annotation" data-index="18" style="opacity: 1;"><g class="annotation-text-g" transform="rotate(0,433.72,240.94)"><g class="cursor-pointer" transform="translate(425,235)"><rect class="bg" x="0.5" y="0.5" width="17" height="11" style="stroke-width: 1px; stroke: rgb(0, 0, 0); stroke-opacity: 0; fill: rgb(0, 0, 0); fill-opacity: 0;"/><text class="annotation-text" text-anchor="middle" x="9.203125" y="8" style="font-family: Helvetica, Arial, 'Helvetica Neue', 'DejaVu Sans', 'PingFang SC', 'Songti SC', 'Hiragino Sans GB', 'Microsoft YaHei', sans-serif; font-size: 7px; fill: rgb(51, 51, 51); fill-opacity: 1; white-space: pre;">BDP</text></g></g></g><g class="annotation" data-index="19" style="opacity: 1;"><g class="annotation-text-g" transform="rotate(0,542.86,225.46)"><g class="cursor-pointer" transform="translate(541,223)"><rect class="bg" x="0.5" y="0.5" width="3" height="3" style="stroke-width: 1px; stroke: rgb(0, 0, 0); stroke-opacity: 0; fill: rgb(0, 0, 0); fill-opacity: 0;"/><text class="annotation-text" text-anchor="middle" x="2" y="2" style="font-family: Helvetica, Arial, 'Helvetica Neue', 'DejaVu Sans', 'PingFang SC', 'Songti SC', 'Hiragino Sans GB', 'Microsoft YaHei', sans-serif; font-size: 8px; fill: rgb(17, 17, 17); fill-opacity: 1; white-space: pre;"></text></g></g><g class="annotation-arrow-g" style="opacity: 1;"><path d="M541.36,224.23445482866043L446.56,146.78" style="stroke-width: 1.1px; stroke: rgb(51, 51, 51); stroke-opacity: 1; stroke-dasharray: 0px, 0px, 120.988px, 122.418px;"/><path d="M-3.7,-2.5V2.5L1.3,0Z" transform="translate(447.6673889160156,147.6847686767578)rotate(-140.74750734477485)scale(1.1)" style="fill: rgb(51, 51, 51); stroke-width: 0;"/></g></g><g class="annotation" data-index="20" style="opacity: 1;"><g class="annotation-text-g" transform="rotate(0,494.71,179.12)"><g class="cursor-pointer" transform="translate(479,173)"><rect class="bg" x="0.5" y="0.5" width="31" height="11" style="stroke-width: 1px; stroke: rgb(0, 0, 0); stroke-opacity: 0; fill: rgb(0, 0, 0); fill-opacity: 0;"/><text class="annotation-text" text-anchor="middle" x="16" y="8" style="font-family: Helvetica, Arial, 'Helvetica Neue', 'DejaVu Sans', 'PingFang SC', 'Songti SC', 'Hiragino Sans GB', 'Microsoft YaHei', sans-serif; font-size: 7px; fill: rgb(51, 51, 51); fill-opacity: 1; white-space: pre;">目标窗口</text></g></g></g><g class="annotation" data-index="21" style="opacity: 1;"><g class="annotation-text-g" transform="rotate(0,331,55.46)"><g class="cursor-pointer" transform="translate(307,49)"><rect class="bg" x="0.5" y="0.5" width="48" height="12" style="stroke-width: 1px; stroke: rgb(0, 0, 0); stroke-opacity: 0; fill: rgb(0, 0, 0); fill-opacity: 0;"/><text class="annotation-text" text-anchor="middle" x="24.5" y="9" style="font-family: Helvetica, Arial, 'Helvetica Neue', 'DejaVu Sans', 'PingFang SC', 'Songti SC', 'Hiragino Sans GB', 'Microsoft YaHei', sans-serif; font-size: 7.5px; fill: rgb(51, 51, 51); fill-opacity: 1; white-space: pre;">原生回调写回</text></g></g></g></g></svg>